<svg width="24" height="24" viewBox="0 0 24 24" fill="none" xmlns="http://www.w3.org/2000/svg">
<g id="Apple Logo">
<path id="path4" d="M21.2808 18.424C20.933 19.2275 20.5213 19.9672 20.0442 20.6472C19.394 21.5743 18.8616 22.216 18.4513 22.5724C17.8153 23.1573 17.1338 23.4568 16.4041 23.4739C15.8802 23.4739 15.2485 23.3248 14.513 23.0224C13.7752 22.7214 13.0972 22.5724 12.4772 22.5724C11.827 22.5724 11.1296 22.7214 10.3837 23.0224C9.63662 23.3248 9.03481 23.4824 8.57468 23.498C7.87491 23.5278 7.1774 23.2198 6.48118 22.5724C6.03681 22.1848 5.48099 21.5204 4.81515 20.5791C4.10075 19.5739 3.51342 18.4084 3.05329 17.0795C2.56051 15.6442 2.31348 14.2543 2.31348 12.9087C2.31348 11.3673 2.64654 10.0379 3.31366 8.92385C3.83796 8.02901 4.53546 7.32313 5.40844 6.80494C6.28142 6.28674 7.22468 6.02268 8.24048 6.00578C8.7963 6.00578 9.52518 6.17771 10.431 6.5156C11.3342 6.85463 11.9141 7.02656 12.1684 7.02656C12.3585 7.02656 13.0028 6.82552 14.0949 6.42474C15.1278 6.05306 15.9995 5.89916 16.7136 5.95979C18.6487 6.11595 20.1024 6.87876 21.0693 8.25304C19.3386 9.30164 18.4826 10.7703 18.4996 12.6544C18.5152 14.122 19.0476 15.3432 20.0939 16.3129C20.5681 16.7629 21.0977 17.1107 21.6868 17.3578C21.5591 17.7283 21.4242 18.0832 21.2808 18.424ZM16.8428 0.960138C16.8428 2.1104 16.4226 3.1844 15.5849 4.17848C14.5741 5.36024 13.3514 6.04312 12.0256 5.93537C12.0087 5.79737 11.9989 5.65213 11.9989 5.49952C11.9989 4.39527 12.4796 3.2135 13.3333 2.24725C13.7595 1.75801 14.3015 1.35123 14.9588 1.02672C15.6147 0.70706 16.2352 0.53028 16.8187 0.500008C16.8357 0.65378 16.8428 0.807561 16.8428 0.960123V0.960138Z" fill="white"/>
</g>
</svg>
