<svg width="97" height="18" viewBox="0 0 97 18" fill="none" xmlns="http://www.w3.org/2000/svg">
<g id="BandWagon">
<path id="Vector" d="M88.9277 14.5324V4.88618H89.9371C90.1783 4.88618 90.3307 5.00363 90.3942 5.23851L90.5275 6.28598C90.9465 5.82255 91.4131 5.44801 91.9273 5.16233C92.4479 4.87666 93.0478 4.73383 93.727 4.73383C94.2539 4.73383 94.7174 4.8227 95.1173 5.00045C95.5236 5.17186 95.86 5.41944 96.1267 5.7432C96.3997 6.06062 96.606 6.44469 96.7456 6.89541C96.8853 7.34614 96.9551 7.84448 96.9551 8.39043V14.5324H95.2601V8.39043C95.2601 7.66038 95.0919 7.09538 94.7555 6.69544C94.4253 6.28915 93.9175 6.08601 93.2319 6.08601C92.7304 6.08601 92.2606 6.20663 91.8225 6.44786C91.3909 6.68909 90.9909 7.01603 90.6227 7.42867V14.5324H88.9277Z" fill="white"/>
<path id="Vector_2" d="M82.6303 4.73383C83.335 4.73383 83.9698 4.85127 84.5348 5.08616C85.1062 5.32104 85.5886 5.65433 85.9822 6.08601C86.3822 6.51769 86.6869 7.04142 86.8964 7.65721C87.1122 8.26664 87.2201 8.94908 87.2201 9.70452C87.2201 10.4663 87.1122 11.1519 86.8964 11.7614C86.6869 12.3708 86.3822 12.8914 85.9822 13.323C85.5886 13.7547 85.1062 14.088 84.5348 14.3229C83.9698 14.5514 83.335 14.6657 82.6303 14.6657C81.9257 14.6657 81.2877 14.5514 80.7163 14.3229C80.1513 14.088 79.6689 13.7547 79.2689 13.323C78.869 12.8914 78.5611 12.3708 78.3453 11.7614C78.1294 11.1519 78.0215 10.4663 78.0215 9.70452C78.0215 8.94908 78.1294 8.26664 78.3453 7.65721C78.5611 7.04142 78.869 6.51769 79.2689 6.08601C79.6689 5.65433 80.1513 5.32104 80.7163 5.08616C81.2877 4.85127 81.9257 4.73383 82.6303 4.73383ZM82.6303 13.3421C83.5826 13.3421 84.2936 13.0247 84.7634 12.3898C85.2331 11.7487 85.468 10.8567 85.468 9.71405C85.468 8.56501 85.2331 7.6699 84.7634 7.02873C84.2936 6.38755 83.5826 6.06696 82.6303 6.06696C82.1479 6.06696 81.7289 6.14949 81.3734 6.31455C81.0179 6.4796 80.7195 6.71766 80.4783 7.02873C80.2434 7.33979 80.0656 7.72386 79.945 8.18094C79.8307 8.63167 79.7736 9.1427 79.7736 9.71405C79.7736 10.2854 79.8307 10.7964 79.945 11.2472C80.0656 11.6979 80.2434 12.0788 80.4783 12.3898C80.7195 12.6946 81.0179 12.9294 81.3734 13.0945C81.7289 13.2596 82.1479 13.3421 82.6303 13.3421Z" fill="white"/>
<path id="Vector_3" d="M72.6271 4.7243C73.0461 4.7243 73.4365 4.77192 73.7984 4.86714C74.1666 4.95602 74.4999 5.08933 74.7982 5.26708H77.4169V5.89556C77.4169 6.10505 77.2836 6.23837 77.0169 6.2955L75.9219 6.44786C76.1377 6.8605 76.2456 7.32075 76.2456 7.82861C76.2456 8.29838 76.1536 8.72689 75.9695 9.11414C75.7917 9.49503 75.541 9.82197 75.2172 10.0949C74.8998 10.3679 74.5189 10.5774 74.0745 10.7234C73.6365 10.8694 73.154 10.9424 72.6271 10.9424C72.1764 10.9424 71.7511 10.8885 71.3511 10.7806C71.148 10.9075 70.9924 11.044 70.8845 11.19C70.7829 11.336 70.7322 11.4789 70.7322 11.6185C70.7322 11.8471 70.8242 12.0216 71.0083 12.1423C71.1924 12.2565 71.4368 12.3391 71.7415 12.3898C72.0462 12.4406 72.3922 12.4724 72.7795 12.4851C73.1667 12.4978 73.5603 12.52 73.9603 12.5517C74.3665 12.5771 74.7633 12.6247 75.1506 12.6946C75.5378 12.7644 75.8838 12.8787 76.1885 13.0374C76.4932 13.1961 76.7376 13.4151 76.9217 13.6944C77.1058 13.9737 77.1979 14.3356 77.1979 14.78C77.1979 15.1926 77.0931 15.5925 76.8836 15.9798C76.6805 16.367 76.3853 16.7098 75.9981 17.0082C75.6108 17.3129 75.1379 17.5542 74.5792 17.7319C74.0206 17.916 73.3889 18.0081 72.6842 18.0081C71.9796 18.0081 71.3606 17.9382 70.8274 17.7986C70.3005 17.6589 69.8624 17.4716 69.5133 17.2368C69.1641 17.0019 68.9007 16.7289 68.7229 16.4178C68.5515 16.1131 68.4658 15.7925 68.4658 15.4561C68.4658 14.9799 68.615 14.5768 68.9134 14.2467C69.2181 13.9103 69.6339 13.6436 70.1608 13.4468C69.8878 13.3199 69.6688 13.1516 69.5038 12.9421C69.3451 12.7263 69.2657 12.4406 69.2657 12.0851C69.2657 11.9455 69.2911 11.8026 69.3419 11.6566C69.3927 11.5043 69.4688 11.3551 69.5704 11.2091C69.6783 11.0631 69.8085 10.9234 69.9608 10.7901C70.1132 10.6568 70.2909 10.5393 70.4941 10.4378C70.018 10.1711 69.6434 9.81879 69.3704 9.38076C69.1038 8.93638 68.9705 8.419 68.9705 7.82861C68.9705 7.35884 69.0594 6.9335 69.2371 6.55261C69.4212 6.16536 69.6752 5.83843 69.9989 5.5718C70.3227 5.29882 70.7068 5.08933 71.1511 4.94332C71.6019 4.79731 72.0939 4.7243 72.6271 4.7243ZM75.6362 15.0561C75.6362 14.8149 75.5695 14.6213 75.4362 14.4753C75.3029 14.3292 75.122 14.2181 74.8934 14.142C74.6649 14.0594 74.4015 13.9991 74.1031 13.961C73.8047 13.923 73.4905 13.8976 73.1604 13.8849C72.8303 13.8658 72.4938 13.8468 72.151 13.8277C71.8082 13.8087 71.4813 13.7738 71.1702 13.723C70.8083 13.8944 70.5131 14.1039 70.2846 14.3515C70.0624 14.599 69.9513 14.8942 69.9513 15.237C69.9513 15.4529 70.0053 15.6529 70.1132 15.837C70.2275 16.0274 70.3989 16.1893 70.6274 16.3226C70.8559 16.4623 71.1416 16.5702 71.4844 16.6464C71.8336 16.7289 72.243 16.7702 72.7128 16.7702C73.1699 16.7702 73.5794 16.7289 73.9412 16.6464C74.3031 16.5638 74.6078 16.4464 74.8554 16.294C75.1093 16.1417 75.3029 15.9607 75.4362 15.7513C75.5695 15.5418 75.6362 15.3101 75.6362 15.0561ZM72.6271 9.81879C72.9699 9.81879 73.2715 9.77118 73.5317 9.67596C73.7984 9.58073 74.0206 9.44742 74.1983 9.27602C74.3761 9.10461 74.5094 8.90147 74.5983 8.66658C74.6871 8.42535 74.7316 8.16189 74.7316 7.87622C74.7316 7.28583 74.5506 6.81606 74.1888 6.46691C73.8333 6.11775 73.3127 5.94317 72.6271 5.94317C71.9479 5.94317 71.4273 6.11775 71.0654 6.46691C70.7099 6.81606 70.5322 7.28583 70.5322 7.87622C70.5322 8.16189 70.5766 8.42535 70.6655 8.66658C70.7607 8.90147 70.8972 9.10461 71.075 9.27602C71.2527 9.44742 71.4717 9.58073 71.732 9.67596C71.9923 9.77118 72.2907 9.81879 72.6271 9.81879Z" fill="white"/>
<path id="Vector_4" d="M67.1926 14.5323H66.4404C66.2753 14.5323 66.142 14.5069 66.0404 14.4561C65.9389 14.4054 65.8722 14.2974 65.8405 14.1324L65.65 13.2373C65.3961 13.4658 65.1485 13.6721 64.9073 13.8562C64.666 14.034 64.4121 14.1863 64.1455 14.3133C63.8788 14.4339 63.5932 14.526 63.2885 14.5895C62.9901 14.6529 62.6568 14.6847 62.2886 14.6847C61.914 14.6847 61.5617 14.6339 61.2316 14.5323C60.9078 14.4244 60.6253 14.2657 60.3841 14.0562C60.1429 13.8467 59.9493 13.5833 59.8032 13.2658C59.6636 12.9421 59.5938 12.5612 59.5938 12.1232C59.5938 11.7423 59.6985 11.3772 59.908 11.0281C60.1175 10.6726 60.4539 10.3583 60.9174 10.0854C61.3871 9.81239 61.9997 9.5902 62.7552 9.41879C63.5106 9.24104 64.4343 9.13947 65.5262 9.11408V8.3618C65.5262 7.61271 65.3643 7.04771 65.0406 6.66682C64.7232 6.27957 64.2502 6.08595 63.6217 6.08595C63.2091 6.08595 62.8599 6.13991 62.5743 6.24783C62.2949 6.3494 62.0505 6.46685 61.841 6.60016C61.6379 6.72712 61.4601 6.84457 61.3078 6.95249C61.1618 7.05406 61.0158 7.10485 60.8698 7.10485C60.7555 7.10485 60.6539 7.07628 60.565 7.01914C60.4825 6.95566 60.4159 6.87948 60.3651 6.79061L60.0604 6.24783C60.5936 5.73362 61.1681 5.34955 61.7839 5.09562C62.3997 4.84169 63.0821 4.71472 63.8312 4.71472C64.3708 4.71472 64.8501 4.8036 65.2691 4.98135C65.6881 5.1591 66.0404 5.40668 66.3261 5.7241C66.6118 6.04151 66.8276 6.42558 66.9736 6.87631C67.1196 7.32704 67.1926 7.8222 67.1926 8.3618V14.5323ZM62.7933 13.4944C63.0917 13.4944 63.3646 13.4658 63.6122 13.4087C63.8598 13.3452 64.0915 13.2595 64.3073 13.1516C64.5295 13.0373 64.739 12.9008 64.9358 12.7421C65.139 12.5834 65.3358 12.4025 65.5262 12.1993V10.1901C64.7454 10.2155 64.082 10.279 63.536 10.3806C62.9901 10.4758 62.5457 10.6027 62.2029 10.7615C61.8601 10.9202 61.6093 11.1074 61.4506 11.3233C61.2983 11.5391 61.2221 11.7804 61.2221 12.047C61.2221 12.3009 61.2634 12.5199 61.3459 12.704C61.4284 12.8881 61.5395 13.0405 61.6792 13.1611C61.8188 13.2754 61.9839 13.3611 62.1743 13.4182C62.3648 13.469 62.5711 13.4944 62.7933 13.4944Z" fill="white"/>
<path id="Vector_5" d="M40.6709 0.886719H42.204C42.3691 0.886719 42.5056 0.927983 42.6135 1.01051C42.7214 1.09304 42.7944 1.19778 42.8325 1.32475L45.6511 10.8091C45.7019 10.9805 45.7463 11.1646 45.7844 11.3614C45.8289 11.5582 45.8701 11.7645 45.9082 11.9803C45.9527 11.7645 45.9971 11.5582 46.0415 11.3614C46.086 11.1582 46.1368 10.9741 46.1939 10.8091L49.4029 1.32475C49.441 1.21683 49.514 1.11843 49.622 1.02955C49.7362 0.934331 49.8727 0.886719 50.0314 0.886719H50.5647C50.7297 0.886719 50.8631 0.927983 50.9646 1.01051C51.0725 1.09304 51.1487 1.19778 51.1932 1.32475L54.3832 10.8091C54.4974 11.1392 54.599 11.5169 54.6879 11.9422C54.726 11.7327 54.7609 11.5328 54.7926 11.3423C54.8244 11.1519 54.8656 10.9741 54.9164 10.8091L57.7446 1.32475C57.7763 1.21048 57.8462 1.10891 57.9541 1.02003C58.0683 0.931157 58.2048 0.886719 58.3635 0.886719H59.8014L55.5449 14.5323H53.888L50.4314 4.12434C50.3615 3.92754 50.2981 3.699 50.2409 3.43872C50.2092 3.56569 50.1774 3.68948 50.1457 3.8101C50.1203 3.92437 50.0917 4.02911 50.06 4.12434L46.5843 14.5323H44.9274L40.6709 0.886719Z" fill="white"/>
<path id="Vector_6" d="M38.46 14.5324C38.2187 14.5324 38.0664 14.4149 38.0029 14.18L37.8505 13.0088C37.4379 13.5103 36.9649 13.9134 36.4317 14.2181C35.9048 14.5165 35.2985 14.6657 34.6129 14.6657C34.0606 14.6657 33.5591 14.5609 33.1084 14.3514C32.6576 14.1356 32.2736 13.8214 31.9562 13.4087C31.6387 12.9961 31.3943 12.4819 31.2229 11.8661C31.0515 11.2503 30.9658 10.5425 30.9658 9.7426C30.9658 9.03159 31.061 8.37137 31.2515 7.76194C31.4419 7.14615 31.7149 6.6129 32.0704 6.16217C32.4323 5.71144 32.8703 5.35911 33.3845 5.10518C33.8987 4.8449 34.4828 4.71477 35.1366 4.71477C35.727 4.71477 36.2317 4.81634 36.6507 5.01948C37.0697 5.21628 37.4442 5.4956 37.7743 5.85745V0.505859H39.4693V14.5324H38.46ZM35.1747 13.2945C35.727 13.2945 36.2095 13.1675 36.6221 12.9136C37.0411 12.6596 37.4252 12.301 37.7743 11.8375V7.17155C37.4633 6.75256 37.1205 6.46054 36.7459 6.29548C36.3777 6.12408 35.9683 6.03838 35.5175 6.03838C34.6161 6.03838 33.9241 6.35897 33.4416 7.00014C32.9592 7.64132 32.7179 8.55547 32.7179 9.7426C32.7179 10.3711 32.7719 10.9107 32.8798 11.3614C32.9877 11.8058 33.1465 12.174 33.3559 12.466C33.5654 12.7517 33.8225 12.9612 34.1273 13.0945C34.432 13.2278 34.7811 13.2945 35.1747 13.2945Z" fill="white"/>
<path id="Vector_7" d="M21.4688 14.5324V4.88618H22.4781C22.7194 4.88618 22.8717 5.00363 22.9352 5.23851L23.0685 6.28598C23.4875 5.82255 23.9541 5.44801 24.4683 5.16233C24.9889 4.87666 25.5888 4.73383 26.268 4.73383C26.795 4.73383 27.2584 4.8227 27.6583 5.00045C28.0646 5.17186 28.4011 5.41944 28.6677 5.7432C28.9407 6.06062 29.147 6.44469 29.2866 6.89541C29.4263 7.34614 29.4961 7.84448 29.4961 8.39043V14.5324H27.8012V8.39043C27.8012 7.66038 27.6329 7.09538 27.2965 6.69544C26.9664 6.28915 26.4585 6.08601 25.7729 6.08601C25.2714 6.08601 24.8016 6.20663 24.3636 6.44786C23.9319 6.68909 23.5319 7.01603 23.1637 7.42867V14.5324H21.4688Z" fill="white"/>
<path id="Vector_8" d="M19.2815 14.5323H18.5292C18.3642 14.5323 18.2309 14.5069 18.1293 14.4561C18.0277 14.4054 17.9611 14.2974 17.9293 14.1324L17.7389 13.2373C17.4849 13.4658 17.2374 13.6721 16.9961 13.8562C16.7549 14.034 16.501 14.1863 16.2343 14.3133C15.9677 14.4339 15.682 14.526 15.3773 14.5895C15.0789 14.6529 14.7457 14.6847 14.3775 14.6847C14.0029 14.6847 13.6506 14.6339 13.3205 14.5323C12.9967 14.4244 12.7142 14.2657 12.473 14.0562C12.2317 13.8467 12.0381 13.5833 11.8921 13.2658C11.7524 12.9421 11.6826 12.5612 11.6826 12.1232C11.6826 11.7423 11.7874 11.3772 11.9969 11.0281C12.2063 10.6726 12.5428 10.3583 13.0062 10.0854C13.476 9.81239 14.0886 9.5902 14.8441 9.41879C15.5995 9.24104 16.5232 9.13947 17.6151 9.11408V8.3618C17.6151 7.61271 17.4532 7.04771 17.1294 6.66682C16.812 6.27957 16.3391 6.08595 15.7106 6.08595C15.298 6.08595 14.9488 6.13991 14.6631 6.24783C14.3838 6.3494 14.1394 6.46685 13.9299 6.60016C13.7268 6.72712 13.549 6.84457 13.3967 6.95249C13.2506 7.05406 13.1046 7.10485 12.9586 7.10485C12.8444 7.10485 12.7428 7.07628 12.6539 7.01914C12.5714 6.95566 12.5047 6.87948 12.4539 6.79061L12.1492 6.24783C12.6825 5.73362 13.257 5.34955 13.8728 5.09562C14.4886 4.84169 15.171 4.71472 15.9201 4.71472C16.4597 4.71472 16.939 4.8036 17.358 4.98135C17.777 5.1591 18.1293 5.40668 18.415 5.7241C18.7006 6.04151 18.9165 6.42558 19.0625 6.87631C19.2085 7.32704 19.2815 7.8222 19.2815 8.3618V14.5323ZM14.8821 13.4944C15.1805 13.4944 15.4535 13.4658 15.7011 13.4087C15.9487 13.3452 16.1804 13.2595 16.3962 13.1516C16.6184 13.0373 16.8279 12.9008 17.0247 12.7421C17.2278 12.5834 17.4246 12.4025 17.6151 12.1993V10.1901C16.8342 10.2155 16.1708 10.279 15.6249 10.3806C15.0789 10.4758 14.6346 10.6027 14.2918 10.7615C13.949 10.9202 13.6982 11.1074 13.5395 11.3233C13.3871 11.5391 13.3109 11.7804 13.3109 12.047C13.3109 12.3009 13.3522 12.5199 13.4347 12.704C13.5173 12.8881 13.6284 13.0405 13.768 13.1611C13.9077 13.2754 14.0727 13.3611 14.2632 13.4182C14.4536 13.469 14.66 13.4944 14.8821 13.4944Z" fill="white"/>
<path id="Vector_9" d="M0.513672 14.5323V0.886719H4.86541C5.70339 0.886719 6.42391 0.969246 7.027 1.1343C7.63644 1.29936 8.13478 1.53424 8.52202 1.83896C8.91561 2.14368 9.20446 2.51823 9.38856 2.96261C9.57901 3.40064 9.67423 3.8958 9.67423 4.4481C9.67423 4.78456 9.62027 5.10832 9.51235 5.41939C9.41078 5.73045 9.25207 6.0193 9.03623 6.28593C8.82674 6.55255 8.56011 6.79061 8.23635 7.00011C7.91893 7.2096 7.54438 7.381 7.1127 7.51432C8.10938 7.71111 8.86165 8.06979 9.36951 8.59035C9.87738 9.11091 10.1313 9.79652 10.1313 10.6472C10.1313 11.2249 10.0234 11.7518 9.80755 12.2279C9.59805 12.704 9.28699 13.1135 8.87435 13.4563C8.46806 13.7991 7.96655 14.0657 7.36981 14.2562C6.77942 14.4403 6.10333 14.5323 5.34153 14.5323H0.513672ZM2.36102 8.3142V13.0659H5.31297C5.83987 13.0659 6.2906 13.0056 6.66515 12.885C7.04605 12.7643 7.35711 12.5961 7.59835 12.3803C7.84593 12.1581 8.02685 11.8978 8.14112 11.5994C8.25539 11.2947 8.31253 10.9614 8.31253 10.5996C8.31253 9.89492 8.06177 9.33945 7.56026 8.93316C7.06509 8.52052 6.31282 8.3142 5.30344 8.3142H2.36102ZM2.36102 7.00011H4.79876C5.31931 7.00011 5.77004 6.94297 6.15094 6.8287C6.53184 6.71443 6.84608 6.55573 7.09366 6.35258C7.34759 6.14944 7.53486 5.90503 7.65548 5.61936C7.7761 5.32734 7.83641 5.00992 7.83641 4.66712C7.83641 3.86723 7.59517 3.28002 7.1127 2.90547C6.63023 2.53092 5.88114 2.34365 4.86541 2.34365H2.36102V7.00011Z" fill="white"/>
</g>
</svg>
