<svg width="19" height="18" viewBox="0 0 19 18" fill="none" xmlns="http://www.w3.org/2000/svg">
<g id="29_frame" clip-path="url(#clip0_600_5118)">
<g id="30_group">
<g id="31_group">
<path id="32_vector" d="M18.5 9C18.5 4.02943 14.4706 -3.8147e-06 9.5 -3.8147e-06C4.52943 -3.8147e-06 0.5 4.02943 0.5 9C0.5 13.4922 3.79117 17.2155 8.09375 17.8907V11.6016H5.80859V9H8.09375V7.01718C8.09375 4.76156 9.43739 3.51562 11.4932 3.51562C12.4779 3.51562 13.5078 3.6914 13.5078 3.6914V5.90625H12.3729C11.2549 5.90625 10.9062 6.6 10.9062 7.31174V9H13.4023L13.0033 11.6016H10.9062V17.8907C15.2088 17.2155 18.5 13.4922 18.5 9Z" fill="white"/>
<path id="33_vector" d="M13.0033 11.6016L13.4023 9H10.9063V7.31174C10.9063 6.60001 11.2549 5.90625 12.3729 5.90625H13.5078V3.69141C13.5078 3.69141 12.4779 3.51562 11.4932 3.51562C9.43739 3.51562 8.09375 4.76156 8.09375 7.01719V9H5.80859V11.6016H8.09375V17.8907C8.55196 17.9626 9.02159 18 9.5 18C9.97841 18 10.448 17.9626 10.9063 17.8907V11.6016H13.0033Z" fill="#3C5A9A"/>
</g>
</g>
</g>
<defs>
<clipPath id="clip0_600_5118">
<rect width="18" height="18" fill="white" transform="translate(0.5)"/>
</clipPath>
</defs>
</svg>
