<svg width="24" height="24" viewBox="0 0 24 24" fill="none" xmlns="http://www.w3.org/2000/svg">
<g id="search">
<mask id="mask0_605_10796" style="mask-type:alpha" maskUnits="userSpaceOnUse" x="0" y="0" width="24" height="24">
<rect id="Bounding box" width="24" height="24" fill="#D9D9D9"/>
</mask>
<g mask="url(#mask0_605_10796)">
<path id="search_2" d="M20.2716 21L13.8375 14.7C13.3269 15.1 12.7396 15.4167 12.0758 15.65C11.412 15.8833 10.7056 16 9.95666 16C8.10134 16 6.53113 15.3708 5.24602 14.1125C3.96091 12.8542 3.31836 11.3167 3.31836 9.5C3.31836 7.68333 3.96091 6.14583 5.24602 4.8875C6.53113 3.62917 8.10134 3 9.95666 3C11.812 3 13.3822 3.62917 14.6673 4.8875C15.9524 6.14583 16.595 7.68333 16.595 9.5C16.595 10.2333 16.4758 10.925 16.2375 11.575C15.9992 12.225 15.6758 12.8 15.2673 13.3L21.7013 19.6L20.2716 21ZM9.95666 14C11.2333 14 12.3184 13.5625 13.212 12.6875C14.1056 11.8125 14.5524 10.75 14.5524 9.5C14.5524 8.25 14.1056 7.1875 13.212 6.3125C12.3184 5.4375 11.2333 5 9.95666 5C8.68006 5 7.59495 5.4375 6.70134 6.3125C5.80772 7.1875 5.36091 8.25 5.36091 9.5C5.36091 10.75 5.80772 11.8125 6.70134 12.6875C7.59495 13.5625 8.68006 14 9.95666 14Z" fill="#A3A3A3"/>
</g>
</g>
</svg>
