<svg width="27" height="12" viewBox="0 0 27 12" fill="none" xmlns="http://www.w3.org/2000/svg">
<g id="Group 10">
<path id="Vector" d="M0.854845 6.70188L0.697266 8.1211L0.854845 9.54032C0.854845 9.61916 0.933635 9.61916 0.933635 9.61916C1.01242 9.61916 1.01242 9.54032 1.01242 9.54032L1.24879 8.1211L1.01242 6.70188C1.01242 6.62303 0.933635 6.62303 0.933635 6.62303C0.933635 6.62303 0.854845 6.62303 0.854845 6.70188ZM1.80032 5.83457L1.56395 8.1211L1.80032 10.4076C1.80032 10.4865 1.87911 10.4865 1.87911 10.4865C1.9579 10.4865 1.9579 10.4076 1.9579 10.4076L2.27306 8.1211L1.9579 5.83457C1.9579 5.75573 1.87911 5.75573 1.87911 5.75573L1.80032 5.83457ZM4.79433 5.51919L4.63675 8.1211L4.79433 10.8807C4.79433 10.9595 4.87312 11.0384 4.95191 11.0384C5.0307 11.0384 5.10949 10.9595 5.10949 10.8807L5.42465 8.1211L5.18828 5.51919C5.18828 5.44035 5.10949 5.3615 5.0307 5.3615C4.87312 5.3615 4.79433 5.44035 4.79433 5.51919ZM2.82459 5.3615L2.58822 8.1211L2.82459 10.723C2.82459 10.8018 2.90338 10.8807 2.98217 10.8807C2.98217 10.8807 3.06096 10.8018 3.06096 10.723L3.29733 8.1211L3.06096 5.3615C3.06096 5.28266 2.98217 5.20381 2.90338 5.20381C2.90338 5.28266 2.82459 5.28266 2.82459 5.3615ZM3.77007 5.28266L3.5337 8.1211L3.77007 10.8018C3.77007 10.8807 3.84885 10.9595 3.92764 10.9595C4.00643 10.9595 4.08522 10.8807 4.08522 10.8018L4.32159 8.1211L4.08522 5.28266C4.08522 5.20381 4.00643 5.12496 3.92764 5.12496C3.84885 5.12496 3.84885 5.20381 3.77007 5.28266ZM5.8186 3.86343L5.58223 8.1211L5.8186 10.8807C5.8186 10.9595 5.89739 11.0384 5.97618 11.0384C6.13376 11.0384 6.21255 10.9595 6.21255 10.8807L6.44892 8.1211L6.21255 3.86343C6.21255 3.78459 6.13376 3.70574 6.05497 3.70574C5.89739 3.70574 5.8186 3.78459 5.8186 3.86343ZM6.84286 2.91729L6.68529 8.1211L6.84286 10.8807C6.84286 11.0384 6.92165 11.1172 7.07923 11.1172C7.15802 11.1172 7.3156 11.0384 7.3156 10.8807L7.55197 8.1211L7.3156 2.91729C7.3156 2.7596 7.23681 2.68075 7.07923 2.68075C6.92165 2.68075 6.84286 2.7596 6.84286 2.91729ZM11.0187 2.68075L10.8611 8.1211L11.0187 10.723C11.0187 10.8807 11.1763 11.0384 11.3339 11.0384C11.4915 11.0384 11.649 10.8807 11.649 10.723L11.8066 8.1211L11.649 2.6019C11.649 2.44421 11.4915 2.28652 11.3339 2.28652C11.0975 2.36537 11.0187 2.44421 11.0187 2.68075ZM7.86713 2.44421L7.70955 8.1211L7.86713 10.8018C7.86713 10.9595 7.94592 11.0384 8.1035 11.0384C8.26108 11.0384 8.33987 10.9595 8.33987 10.8018L8.49745 8.1211L8.33987 2.44421C8.33987 2.28652 8.26108 2.20768 8.1035 2.20768C7.94592 2.20768 7.86713 2.36537 7.86713 2.44421ZM9.91566 2.44421L9.75808 8.1211L9.91566 10.8018C9.91566 10.9595 10.0732 11.1172 10.2308 11.1172C10.3884 11.1172 10.546 10.9595 10.546 10.8018L10.7036 8.1211L10.546 2.44421C10.546 2.28652 10.3884 2.12883 10.2308 2.12883C10.0732 2.12883 9.91566 2.28652 9.91566 2.44421ZM8.8914 2.28652L8.73382 8.1211L8.8914 10.8018C8.8914 10.9595 8.97019 11.0384 9.12777 11.0384C9.28535 11.0384 9.36414 10.9595 9.36414 10.8018L9.52172 8.1211L9.36414 2.28652C9.36414 2.12883 9.20656 2.04999 9.12777 2.04999C9.04898 2.04999 8.8914 2.12883 8.8914 2.28652ZM12.043 1.57691L11.8854 8.1211L12.043 10.723C12.043 10.8807 12.2006 11.0384 12.3581 11.0384C12.5157 11.0384 12.6733 10.8807 12.6733 10.723L12.8309 8.1211L12.6733 1.57691C12.6733 1.41922 12.5157 1.26153 12.3581 1.26153C12.2006 1.26153 12.043 1.41922 12.043 1.57691ZM13.146 1.02499L12.9885 8.1211L13.146 10.723C13.146 10.8807 13.3036 11.0384 13.4612 11.0384C13.6188 11.0384 13.7764 10.8807 13.7764 10.723L13.9339 8.1211L13.7764 1.02499C13.7764 0.867302 13.6188 0.70961 13.4612 0.70961H13.3824C13.2248 0.70961 13.146 0.867302 13.146 1.02499ZM14.4067 0.315382C14.1703 0.394228 14.0915 0.473074 14.0915 0.70961V10.723C14.0915 10.8807 14.2491 11.0384 14.4067 11.1172H23.1523C24.8857 11.1172 26.3039 9.69801 26.3039 7.96341C26.3039 6.2288 24.8857 4.80958 23.1523 4.80958C22.7584 4.80958 22.2857 4.88843 21.9705 5.04612C21.7341 2.20768 19.3704 0 16.4552 0C16.2976 0 16.2188 0 16.0613 0C15.5097 0 14.9582 0.157691 14.4067 0.315382Z" fill="white"/>
</g>
</svg>
