<svg width="25" height="26" viewBox="0 0 25 26" fill="none" xmlns="http://www.w3.org/2000/svg">
<g id="contract">
<mask id="mask0_600_6088" style="mask-type:alpha" maskUnits="userSpaceOnUse" x="0" y="0" width="25" height="26">
<rect id="Bounding box" x="0.193848" y="0.903473" width="24" height="24" transform="rotate(0.46274 0.193848 0.903473)" fill="#D9D9D9"/>
</mask>
<g mask="url(#mask0_600_6088)">
<path id="contract_2" d="M6.01611 22.9512C5.18281 22.9445 4.47685 22.6471 3.89825 22.0591C3.31964 21.4711 3.03371 20.7604 3.04044 19.9271L3.06467 16.9272L6.06457 16.9514L6.17764 2.95187L21.1771 3.07302L21.0399 20.0725C21.0331 20.9058 20.7357 21.6117 20.1477 22.1903C19.5597 22.7689 18.849 23.0549 18.0157 23.0481L6.01611 22.9512ZM18.0319 21.0482C18.3152 21.0505 18.5535 20.9566 18.7467 20.7665C18.9399 20.5763 19.0376 20.3396 19.0399 20.0563L19.1611 5.0568L8.16142 4.96796L8.0645 16.9676L17.0642 17.0403L17.04 20.0402C17.0377 20.3235 17.1316 20.5617 17.3217 20.755C17.5118 20.9482 17.7485 21.0459 18.0319 21.0482ZM9.12101 9.97587L9.13716 7.97594L18.1369 8.04862L18.1207 10.0486L9.12101 9.97587ZM9.09678 12.9758L9.11293 10.9758L18.1126 11.0485L18.0965 13.0485L9.09678 12.9758ZM6.03226 20.9513L15.032 21.024L15.0481 19.024L5.04845 18.9433L5.04037 19.9432C5.03808 20.2266 5.132 20.4648 5.32211 20.658C5.51222 20.8512 5.74894 20.949 6.03226 20.9513ZM6.03226 20.9513L5.0323 20.9432L15.032 21.024L6.03226 20.9513Z" fill="white"/>
</g>
</g>
</svg>
