<svg width="21" height="21" viewBox="0 0 21 21" fill="none" xmlns="http://www.w3.org/2000/svg">
<g id="g12">
<path id="path14" d="M21 10.5C21 4.70099 16.299 -1.14441e-05 10.5 -1.14441e-05C4.70101 -1.14441e-05 0 4.70099 0 10.5C0 15.7408 3.8397 20.0847 8.85938 20.8724V13.5351H6.19336V10.5H8.85938V8.18671C8.85938 5.55515 10.427 4.10155 12.8254 4.10155C13.9742 4.10155 15.1758 4.30663 15.1758 4.30663V6.89061H13.8518C12.5474 6.89061 12.1406 7.7 12.1406 8.53036V10.5H15.0527L14.5872 13.5351H12.1406V20.8724C17.1603 20.0847 21 15.7408 21 10.5Z" fill="white"/>
<path id="path16" d="M14.5872 13.5352L15.0527 10.5H12.1406V8.53037C12.1406 7.70001 12.5474 6.89063 13.8518 6.89063H15.1758V4.30664C15.1758 4.30664 13.9742 4.10156 12.8254 4.10156C10.427 4.10156 8.85938 5.55516 8.85938 8.18672V10.5H6.19336V13.5352H8.85938V20.8724C9.39395 20.9563 9.94186 21 10.5 21C11.0581 21 11.606 20.9563 12.1406 20.8724V13.5352H14.5872Z" fill="#2A2B2F"/>
</g>
</svg>
