<svg width="21" height="22" viewBox="0 0 21 22" fill="none" xmlns="http://www.w3.org/2000/svg">
<g id="Group">
<path id="Vector" fill-rule="evenodd" clip-rule="evenodd" d="M4.86885 0C2.16393 0 0 2.1683 0 4.87868V16.2623C0 18.9726 2.16393 21.1409 4.86885 21.1409H16.1311C18.8361 21.1409 21 18.9726 21 16.2623V4.87868C21 2.1683 18.8361 0 16.1311 0H4.86885ZM13.918 7.88473C13.1311 7.19482 12.0984 6.84986 11.0656 6.84986C10.1803 6.84986 9.34426 7.14554 9.34426 7.93401C9.34426 8.67321 10.1311 8.96888 11.0656 9.31384C11.1639 9.36312 11.2623 9.36312 11.3607 9.4124C13.2295 10.053 14.8033 10.8415 14.8033 12.6649C14.8033 14.6853 13.2295 16.0159 10.7213 16.213L10.4754 17.2971C10.4262 17.4942 10.2787 17.6421 10.0328 17.6421H8.45902C8.31148 17.6421 8.21311 17.5928 8.11475 17.4942C8.01639 17.3957 8.01639 17.2479 8.01639 17.1493L8.26229 16.0159C7.32787 15.7695 6.44262 15.2767 5.70492 14.5868C5.60656 14.4882 5.55738 14.3896 5.55738 14.2911C5.55738 14.1925 5.60656 14.0447 5.70492 13.9954L6.59016 13.1084C6.7377 12.9605 7.03279 12.9605 7.18033 13.1084C7.96721 13.8968 9.09836 14.2911 10.1803 14.2911C11.3115 14.2911 12.0984 13.7983 12.0984 13.0098C12.0984 12.3199 11.459 12.0735 10.2295 11.63C10.082 11.5807 9.98361 11.5314 9.83607 11.4821C8.26229 10.9401 6.78689 10.1023 6.78689 8.27897C6.78689 6.11067 8.55738 5.0758 10.7213 4.97724L10.9672 3.89309C10.9672 3.54813 11.1639 3.44957 11.3607 3.44957H12.9344C13.082 3.44957 13.1803 3.49885 13.2787 3.59741C13.377 3.69597 13.377 3.84381 13.377 3.94237L13.1311 5.17436C13.918 5.42075 14.7049 5.86427 15.3443 6.40634C15.4426 6.5049 15.4918 6.60346 15.4918 6.70202C15.4918 6.80058 15.4426 6.94842 15.3443 6.9977L14.5082 7.83545C14.3607 8.03257 14.0656 8.03257 13.918 7.88473Z" fill="white"/>
</g>
</svg>
