<svg width="21" height="21" viewBox="0 0 21 21" fill="none" xmlns="http://www.w3.org/2000/svg">
<g id="g10">
<g id="g12">
<path id="path14" d="M16.7111 9.30847C13.3265 7.29846 7.74366 7.11364 4.51264 8.09427C3.99377 8.25175 3.44506 7.95873 3.28789 7.44001C3.13062 6.9208 3.42322 6.3725 3.94248 6.21477C7.65148 5.08895 13.8171 5.30636 17.7136 7.61931C18.1802 7.89641 18.3333 8.49913 18.0567 8.96503C17.7799 9.4317 17.1767 9.58553 16.7111 9.30847ZM16.6003 12.2856C16.3628 12.6709 15.859 12.7918 15.4742 12.5552C12.6525 10.8207 8.34972 10.3182 5.01138 11.3315C4.57847 11.4624 4.12121 11.2183 3.9897 10.7862C3.85927 10.3533 4.10348 9.89684 4.53561 9.76519C8.34918 8.60796 13.09 9.16849 16.331 11.1601C16.7158 11.3971 16.8369 11.9012 16.6003 12.2856ZM15.3155 15.1447C15.1268 15.4542 14.7239 15.5511 14.4156 15.3625C11.9499 13.8555 8.8464 13.5152 5.19147 14.35C4.83927 14.4308 4.48824 14.2101 4.40792 13.8579C4.32725 13.5058 4.54712 13.1548 4.9001 13.0744C8.89979 12.16 12.3307 12.5535 15.0983 14.2447C15.4069 14.4332 15.5041 14.8363 15.3155 15.1447ZM10.5 0C4.70111 0 0 4.70101 0 10.4999C0 16.2994 4.70111 21 10.5 21C16.2991 21 21 16.2994 21 10.4999C21 4.70101 16.2991 0 10.5 0Z" fill="white"/>
</g>
</g>
</svg>
