<svg width="21" height="15" viewBox="0 0 21 15" fill="none" xmlns="http://www.w3.org/2000/svg">
<g id="g10">
<g id="g12">
<path id="path14" d="M20.5611 2.30238C20.3196 1.39605 19.6082 0.682364 18.7046 0.440147C17.0669 -5.24521e-05 10.5 -5.24521e-05 10.5 -5.24521e-05C10.5 -5.24521e-05 3.93312 -5.24521e-05 2.29543 0.440147C1.39192 0.682364 0.6803 1.39605 0.43882 2.30238C0 3.94502 0 7.37229 0 7.37229C0 7.37229 0 10.7995 0.43882 12.4423C0.6803 13.3485 1.39192 14.0622 2.29543 14.3045C3.93312 14.7446 10.5 14.7446 10.5 14.7446C10.5 14.7446 17.0669 14.7446 18.7046 14.3045C19.6082 14.0622 20.3196 13.3485 20.5611 12.4423C21 10.7995 21 7.37229 21 7.37229C21 7.37229 21 3.94502 20.5611 2.30238Z" fill="white"/>
<path id="path16" d="M8.35156 10.484L13.8402 7.37243L8.35156 4.26059V10.484Z" fill="#2A2B2F"/>
</g>
</g>
</svg>
